<svg xmlns="http://www.w3.org/2000/svg" xmlns:xlink="http://www.w3.org/1999/xlink" id="Layer_1" x="0px" y="0px" viewBox="0 0 718.6 203.7" xml:space="preserve"><g>	<g>		<g>			<g>				<path fill="#FFFFFF" d="M301.6,128.9v-7.3l9.5-1.6V53.3l-9.5-1.6v-7.4h9.5h11.4h9.5v7.4l-9.5,1.6v66.6H352l0.9-9.7h9.8v18.7     H301.6z"></path>			</g>			<g>				<path fill="#FFFFFF" d="M372.3,121.5l9.5-1.6V75l-9.5-1.6V66h20.9v53.9l9.5,1.6v7.3h-30.4V121.5z M393.3,49.9h-11.4V38.2h11.4     V49.9z"></path>			</g>			<g>				<path fill="#FFFFFF" d="M469,99.8c0,9.1-2.2,16.4-6.5,21.9c-4.4,5.6-10.4,8.3-18,8.3c-4.1,0-7.7-0.8-10.7-2.4s-5.5-3.9-7.6-6.9     l-1,8.1h-9.9V47.2l-9.5-1.6v-7.4h20.9v35.2c2-2.8,4.4-4.9,7.4-6.4c2.9-1.5,6.3-2.2,10.3-2.2c7.7,0,13.8,3.1,18.1,9.3     c4.3,6.2,6.5,14.3,6.5,24.5L469,99.8L469,99.8z M457.5,98.6c0-7.2-1.3-13.1-3.9-17.7c-2.6-4.5-6.7-6.8-12.1-6.8     c-3.5,0-6.5,0.8-8.9,2.6c-2.4,1.7-4.3,4-5.8,6.9v27.8c1.4,2.9,3.4,5.2,5.8,6.9c2.5,1.7,5.5,2.6,9,2.6c5.4,0,9.4-1.9,12-5.8     c2.6-3.8,3.9-8.9,3.9-15.2V98.6z"></path>			</g>			<g>				<path fill="#FFFFFF" d="M509.1,130.1c-8.8,0-15.7-2.9-20.9-8.7c-5.2-5.8-7.8-13.4-7.8-22.7v-2.6c0-8.9,2.7-16.4,8-22.3     c5.3-5.9,11.6-8.9,18.9-8.9c8.4,0,14.8,2.6,19.2,7.7c4.4,5.1,6.5,11.9,6.5,20.5v7.1h-40.8l-0.2,0.3c0.1,6,1.6,11,4.6,14.9     c2.9,3.9,7.1,5.8,12.4,5.8c3.9,0,7.3-0.6,10.2-1.7s5.5-2.6,7.6-4.6l4.5,7.4c-2.2,2.2-5.2,4-8.9,5.5     C518.7,129.3,514.3,130.1,509.1,130.1z M507.3,73.8c-3.8,0-7.1,1.6-9.8,4.9c-2.7,3.2-4.4,7.3-5,12.2l0.1,0.3h29v-1.5     c0-4.5-1.2-8.3-3.6-11.3C515.6,75.3,512,73.8,507.3,73.8z"></path>			</g>			<g>				<path fill="#FFFFFF" d="M544.3,73.4V66H564l1.1,9.1c1.8-3.2,4-5.7,6.6-7.6c2.6-1.8,5.6-2.7,9-2.7c0.9,0,1.8,0.1,2.8,0.2     c0.9,0.1,1.7,0.3,2.2,0.4L584.2,76l-6.5-0.4c-3,0-5.6,0.7-7.6,2.1c-2.1,1.4-3.6,3.4-4.8,6v36.1l9.5,1.6v7.3h-30.4v-7.3l9.5-1.6     V75L544.3,73.4z"></path>			</g>			<g>				<path fill="#FFFFFF" d="M615.4,50.8V66h11.9v8.5h-11.9v38.2c0,2.9,0.6,5,1.8,6.2s2.8,1.8,4.9,1.8c1,0,2.1-0.1,3.4-0.3     c1.3-0.2,2.3-0.4,3.2-0.6l1.6,7.8c-1.1,0.7-2.7,1.3-4.8,1.7c-2.1,0.4-4.2,0.7-6.3,0.7c-4.6,0-8.3-1.4-11.1-4.2     s-4.1-7.2-4.1-13.2V74.5h-10V66h9.9V50.8H615.4z"></path>			</g>			<g>				<path fill="#FFFFFF" d="M698.7,73.4l-5.6,0.9l-23.9,64.3c-1.6,4.2-3.9,7.9-6.9,11s-7,4.7-12,4.7c-0.9,0-2.1-0.1-3.5-0.3     s-2.5-0.4-3.3-0.6l1.2-9c-0.2,0,0.5,0,2.1,0.1s2.6,0.2,3,0.2c2.4,0,4.4-1.1,5.9-3.2c1.5-2.1,2.8-4.5,4-7.3l2.7-6.5l-20.7-53.3     l-5.7-0.9V66h25.4v7.4l-7.1,1.2l10.9,31l2.1,8h0.3l13.1-39l-7.1-1.2V66h25.3v7.4H698.7z"></path>			</g>		</g>		<g>			<g>				<path fill="#FFFFFF" d="M312.3,144.4c3.4,0,6,1,8.1,3.1c2,2.1,3.1,4.7,3.1,8v3.5c0,3.3-1,5.9-3.1,8c-2,2.1-4.7,3.1-8.1,3.1     h-10.8v-2.2l2.9-0.5v-20.2l-2.9-0.5v-2.2h2.9h7.9V144.4z M307.9,147.1v20.2h4.4c2.4,0,4.2-0.8,5.6-2.3c1.4-1.6,2.1-3.6,2.1-6     v-3.5c0-2.4-0.7-4.4-2.1-6s-3.2-2.3-5.6-2.3L307.9,147.1L307.9,147.1z"></path>			</g>			<g>				<path fill="#FFFFFF" d="M336.7,170v-2.2l2.9-0.5v-20.2l-2.9-0.5v-2.2h19.7v6.2h-3l-0.3-3.4H343v8.3h9.8v2.7H343v9.2h10.3     l0.3-3.4h3v6.2h-19.9V170z"></path>			</g>			<g>				<path fill="#FFFFFF" d="M381.1,144.4c2.7,0,4.8,0.6,6.3,1.7c1.5,1.2,2.3,2.9,2.3,5.2c0,1.1-0.4,2.2-1.1,3.1     c-0.7,0.9-1.7,1.6-2.9,2c1.5,0.3,2.8,1.1,3.7,2.3c0.9,1.2,1.3,2.6,1.3,4.1c0,2.4-0.8,4.1-2.3,5.4c-1.5,1.2-3.6,1.9-6.2,1.9     h-12.3v-2.2l2.9-0.5v-20.2l-2.9-0.5v-2.2h2.9h8.3V144.4z M376.2,155.3h5.8c1.2,0,2.3-0.4,3-1.1c0.8-0.7,1.2-1.7,1.2-2.9     c0-1.4-0.4-2.4-1.3-3.1c-0.9-0.7-2.1-1-3.8-1h-4.9L376.2,155.3L376.2,155.3z M376.2,158v9.3h6c1.6,0,2.8-0.4,3.7-1.2     c0.9-0.8,1.3-1.9,1.3-3.3c0-1.5-0.4-2.7-1.1-3.5c-0.7-0.9-1.9-1.3-3.4-1.3H376.2z"></path>			</g>			<g>				<path fill="#FFFFFF" d="M423.9,144.4v5.7h-3l-0.3-2.9H415v20.2l2.9,0.5v2.2h-9.2v-2.2l2.9-0.5v-20.2h-5.7l-0.2,2.9h-3v-5.7     H423.9z"></path>			</g>			<g>				<path fill="#FFFFFF" d="M466.3,144.4c2.8,0,4.9,0.6,6.4,1.9c1.5,1.2,2.2,3,2.2,5.3c0,1.2-0.3,2.4-1,3.3c-0.7,1-1.7,1.7-3,2.3     c1.4,0.5,2.4,1.2,3,2.2s0.9,2.3,0.9,3.8v2.1c0,0.8,0.1,1.4,0.3,1.7c0.2,0.4,0.5,0.6,1,0.7l0.8,0.1v2.3H475     c-1.3,0-2.3-0.5-2.9-1.4s-0.9-2.1-0.9-3.4v-2c0-1.4-0.4-2.5-1.2-3.4c-0.8-0.8-1.9-1.3-3.3-1.3h-5.6v8.7l2.9,0.5v2.2h-9v-2.2     l2.9-0.5v-20.2l-2.9-0.5v-2.2h2.9L466.3,144.4L466.3,144.4z M461.4,155.8h4.6c1.9,0,3.3-0.4,4.2-1.1c0.9-0.7,1.3-1.8,1.3-3.2     s-0.4-2.4-1.3-3.2c-0.8-0.8-2.2-1.2-3.9-1.2h-4.9L461.4,155.8L461.4,155.8z"></path>			</g>			<g>				<path fill="#FFFFFF" d="M489.6,170v-2.2l2.9-0.5v-20.2l-2.9-0.5v-2.2h19.7v6.2h-3l-0.3-3.4h-10.1v8.3h9.8v2.7h-9.8v9.2h10.3     l0.3-3.4h3v6.2h-19.9V170z"></path>			</g>			<g>				<path fill="#FFFFFF" d="M522.7,170v-2.2l2.9-0.5v-20.2l-2.9-0.5v-2.2h2.9h3.5h2.9v2.2l-2.9,0.5v20.2h8.9l0.3-2.9h3v5.7h-18.6     V170z"></path>			</g>			<g>				<path fill="#FFFFFF" d="M554,146.6v-2.2h9.2v2.2l-2.9,0.5v20.2l2.9,0.5v2.2H554v-2.2l2.9-0.5v-20.2L554,146.6z"></path>			</g>			<g>				<path fill="#FFFFFF" d="M575.8,170v-2.2l2.9-0.5v-20.2l-2.9-0.5v-2.2h19.7v6.2h-3l-0.3-3.4h-10.1v8.3h9.8v2.7h-9.8v9.2h10.3     l0.3-3.4h3v6.2h-19.9V170z"></path>			</g>			<g>				<path fill="#FFFFFF" d="M608.9,167.8l2.9-0.5v-20.2l-2.9-0.5v-2.2h19.8v6.2h-3l-0.3-3.4h-10.2v8.9h9.9v2.7h-9.9v8.6l2.9,0.5v2.2     h-9.2V167.8z"></path>			</g>		</g>		<g>			<path fill="#FFFFFF" d="M710.4,65.9v1.2h-0.6l-0.1-0.6h-1.2v4.4l0.6,0.1v0.5h-2V71l0.6-0.1v-4.4h-1.2l-0.1,0.6h-0.6v-1.2H710.4z"></path>			<path fill="#FFFFFF" d="M717.3,67L717.3,67l-1.8,4.4H715l-1.8-4.4l0,0l0.1,2.2v1.6l0.6,0.1v0.5h-2V71l0.6-0.1v-4.4l-0.6-0.1v-0.5    h0.6h1l1.8,4.5l0,0l1.8-4.5h1.6v0.5l-0.6,0.1v4.4l0.6,0.1v0.5h-2V71l0.6-0.1v-1.6L717.3,67z"></path>		</g>	</g>	<g>		<path fill="#FFFFFF" d="M108.6,184.9L108.6,184.9c0,0-14.6-3.5-26.9-4.6c-5-0.4-10.8-0.7-17.2-0.7c-10.6,0-21.2,0.8-31.7,2.4   c-4.1,0.7-13.4,2.3-20.3,4.7c-0.4,0.2-0.9,0.3-1.3,0.5l0,0l0,0C4,189.8,0,192,0,192c9.6-1.7,18.8-2.6,27.3-3   c3-0.1,10.7-0.3,19.2,0.2c8.7,0.7,23.8,2.1,37.1,4.7l0,0c0,0,0.1,0,0.2,0c0.9,0.2,1.8,0.4,2.6,0.5c0.1,0,0.2,0,0.3,0.1   c0.5,0.1,1,0.2,1.6,0.3c6.3,1.3,17.7,3.5,27.8,5.2c0.6,0.1,1.1,0.2,1.6,0.3c2.4,0.4,4.6,0.7,6.7,1l0,0c0,0,0,0,0.1,0   c2.4,0.3,4.6,0.6,6.4,0.7c0.5,0,0.9,0.1,1.4,0.1c0.7,0.1,1.4,0.1,2.1,0.2c2.4,0.2,4.8,0.4,6.6,0.5l0,0c6.5,0.5,12.6,0.7,18.1,0.7   c43.5,0,56.1-13.6,56.1-13.6c-5.6,3-16.2,4.6-30.1,4.6C165.3,194.8,138.4,191.6,108.6,184.9z"></path>		<path fill="#FFFFFF" d="M246.7,166.3c-1.1,0.4-2.2,0.7-3.4,1c-9.1,2.4-21.7,3.7-36.7,3.7c-23.9,0-54-3.2-86.6-10.3   c-11-2.4-21.6-3.4-31.5-3.4c-47.8,0-80.7,22.9-80.7,22.9c3.3-0.9,6.6-1.7,9.8-2.4c1.2-0.3,2.4-0.5,3.5-0.7   c11.4-2.5,29.3-5.3,49.9-4.6c8.3,0.3,17.1,1.1,26,2.8c0.7,0.1,1.4,0.3,2.1,0.4c5.3,1,10.5,1.9,15.6,2.8c0.1,0,0.1,0,0.2,0   c13.7,2.3,26.6,4.2,38.9,5.3c8.3,0.6,15.9,0.9,22.9,0.9c17.5,0,31.4-1.8,42.3-4.3c9.2-2.2,16.3-4.9,21.6-7.6   c10.6-5.3,14.3-10.4,14.3-10.4C252.9,163.9,250.1,165.2,246.7,166.3z"></path>		<rect x="54.8" y="89.7" fill="#FFFFFF" width="151.4" height="12.5"></rect>		<path fill="#FFFFFF" d="M131.2,41.4l-86.9,46h86.9h86.9L131.2,41.4z M71.7,80.5L131.1,49l59.4,31.5h-59.4H71.7z"></path>		<path fill="#FFFFFF" d="M131.2,54.2c-6.5,0-11.7,5.3-11.7,11.8s5.3,11.8,11.7,11.8c6.5,0,11.8-5.3,11.8-11.8   C142.9,59.5,137.6,54.2,131.2,54.2z"></path>		<path fill="#FFFFFF" d="M223.7,160.3c5.6-12.9,8.5-26.5,8.5-40.4c0-55.7-45.3-101-101-101s-101,45.3-101,101   c0,12.8,2.4,25.4,7.2,37.3l0.1,0.2c1.3-0.4,2.6-0.8,4-1.2l-0.2-0.5c-4.6-11.4-6.9-23.5-6.9-35.8c0-53.4,43.4-96.8,96.8-96.8   S228,66.5,228,119.9c0,13.4-2.7,26.4-8.1,38.7l-1.8,4.1c1.6-0.1,3.2-0.2,4.7-0.3L223.7,160.3z"></path>		<path fill="#FFFFFF" d="M33.4,158.7c-4.8-12-7.4-25.1-7.4-38.8C26,61.8,73.1,14.7,131.2,14.7s105.2,47.1,105.2,105.2   c0,14.9-3.2,29.1-8.8,42c7.1-0.8,13-2.1,17.2-3.8c4-12,6.3-24.9,6.3-38.2C251.1,53.7,197.4,0,131.2,0c-66.3,0-120,53.7-120,119.9   c0,15.6,3,30.6,8.5,44.3C23.7,162.4,28.3,160.5,33.4,158.7z"></path>		<path fill="#FFFFFF" d="M178.9,160.3v-50.8h1.8v-5.1h-1.8h-12.5h-1.8v5.1h1.8v49.6C170.7,159.6,174.8,160,178.9,160.3z"></path>		<path fill="#FFFFFF" d="M199.8,161.4v-51.9h1.8v-5.1h-1.8h-12.5h-1.8v5.1h1.8v51.3C191.6,161.1,195.8,161.3,199.8,161.4z"></path>		<path fill="#FFFFFF" d="M158,158.1v-48.6h1.8v-5.1H158h-12.5h-1.8v5.1h1.8v46.8C149.7,157,153.9,157.6,158,158.1z"></path>		<path fill="#FFFFFF" d="M137.1,154.6v-45.1h1.8v-5.1h-1.8h-12.5h-1.8v5.1h1.8v42.7C128.8,153.1,133,153.9,137.1,154.6z"></path>		<path fill="#FFFFFF" d="M90.1,147.8c1.7,0,3.5,0.1,5.2,0.1v-38.5h1.8v-5.1h-1.8H82.8H81v5.1h1.8V148   C85.2,147.9,87.6,147.8,90.1,147.8z"></path>		<path fill="#FFFFFF" d="M74.4,148.5v-39h1.8v-5.1h-1.8H61.9h-1.8v5.1h1.8v40.7C65.9,149.5,70,148.9,74.4,148.5z"></path>		<path fill="#FFFFFF" d="M116.2,150.3v-40.8h1.8v-5.1h-1.8h-12.5h-1.8v5.1h1.8v39C107.8,148.9,111.9,149.5,116.2,150.3z"></path>	</g></g></svg>