<svg xmlns="http://www.w3.org/2000/svg" width="170" height="65" viewBox="0 0 170 65" fill="none"><g clip-path="url(#clip0_2037_505)"><path d="M157.58 64.3013C153.393 63.8704 149.697 61.2193 147.395 57.8037C146.89 57.0539 145.94 54.6803 145.282 54.5586L68.1894 54.673C59.8545 58.9017 49.6642 54.6073 44.6954 47.2577C38.9275 54.8751 28.8975 58.78 19.8098 54.6024C11.0354 50.5685 8.79139 41.2519 10.3068 32.3466C10.5084 31.1659 10.8022 30.0096 11.1957 28.8775C11.1277 28.5586 9.44954 28.2105 8.92982 27.9719C5.63911 26.4625 3.05511 23.7627 0.00725077 21.9174C-0.0583207 21.5182 0.335108 21.6886 0.611965 21.6764C3.91239 21.5255 4.65311 24.033 6.83882 25.6811C7.39254 26.0974 10.319 27.7236 10.863 27.7698C11.7033 28.1375 12.512 25.3476 12.4124 24.9946L8.77439 22.8961L12.903 24.347C13.7287 22.7963 11.4531 21.1408 10.1611 20.6539C8.20125 19.9163 6.83154 20.2961 4.87897 20.6978C6.11754 19.3807 7.94139 18.5968 9.75068 18.7502C8.50968 17.2433 7.86125 14.9573 7.79325 13.0195C7.75439 11.9507 8.12839 10.882 8.04582 9.62097C7.92682 7.82921 7.17882 5.89625 7.06225 4.02903C6.98211 2.73633 6.99911 1.23914 7.31968 0C8.40525 0.944569 9.58554 3.35225 9.72882 4.7764C9.87211 6.20056 9.34997 7.73427 9.26497 9.13408C9.11197 11.6927 9.37182 16.1916 11.203 18.1562C12.0287 19.0423 13.2041 19.3685 14.1318 20.094L12.6771 20.2157L13.6534 21.9174L14.1513 21.7689L17.0121 17.6157C15.4165 14.4412 14.9527 10.8285 14.8701 7.30824L16.8737 12.9757L18.0321 14.8575C20.043 10.3002 16.5215 5.39232 12.1914 3.89513C12.1331 3.4691 12.7451 3.66629 13.039 3.65412C17.6702 3.46667 19.38 5.22434 20.604 9.48708C20.7764 10.0908 20.5335 10.7993 21.0824 11.2058L28.0184 6.33446C27.744 8.97341 25.9395 9.22416 24.1424 10.3708C23.069 11.0573 21.981 11.7755 20.9828 12.5691L20.2275 16.5616C22.5954 16.474 22.6561 14.8429 23.7781 13.4163C24.0865 13.0219 24.9268 11.9507 25.3397 12.2989C24.9705 12.7517 24.2735 13.7449 24.1278 14.2562C23.9918 14.7333 24.3974 14.6798 24.7228 14.6067C25.5243 14.429 27.7197 12.5058 28.2588 11.8071C29.5387 10.1493 29.7718 8.17978 29.5071 6.18109C29.4731 5.91816 29.2958 5.29981 29.7233 5.35824C30.5174 7.26685 31.4257 9.01479 31.2095 11.179C33.8591 11.4663 36.1104 11.756 38.4977 13.0243C42.3955 15.0961 44.455 18.3412 46.41 22.1609C48.0225 18.7551 50.3928 15.5684 53.6131 13.5356C59.0094 10.1249 65.263 10.1444 71.247 11.9361L102.546 11.9313L102.058 22.6502H111.556L113.995 33.8536C114.364 33.8633 114.405 33.0088 114.451 32.7288C114.641 31.5871 115.343 22.7208 115.845 22.6356L146.761 22.6404C155.72 22.9448 157.69 34.4549 150.635 38.9708L150.528 39.3189C152.135 42.8586 153.738 47.3015 155.926 50.4955C156.228 50.9337 157.017 52.2508 157.578 51.8734C159.035 46.3058 167.62 46.7172 169.573 51.703C169.67 51.9513 169.978 52.8959 170.007 53.0955V54.3127L168.834 58.6193C167.588 60.9125 165.68 62.5582 163.256 63.5126L159.535 64.2989C158.899 64.2526 158.217 64.3646 157.588 64.2989L157.58 64.3013ZM18.0273 30.4478C16.2665 32.3783 12.5751 35.7719 12.6577 38.5959C13.0341 51.1796 25.8983 57.2049 36.3678 50.8582C51.0048 41.9846 46.4148 8.93933 27.047 15.23C24.3124 16.1185 20.8298 18.6066 19.0011 20.8243C18.7728 21.1019 18.411 21.2163 18.5154 21.6764C19.2342 21.562 19.7977 21.1043 20.5165 20.8779C21.9397 20.4324 23.9554 20.0745 25.4441 19.9601C25.7574 19.9358 26.9717 19.7848 27.0373 20.2133C22.0854 21.0994 17.3351 23.7019 14.6175 28.0084C14.8094 28.174 17.0728 26.8594 17.544 26.6743C18.5518 26.2775 20.0454 25.7493 21.097 25.5983C21.3544 25.5618 21.9858 25.3938 21.9227 25.815C18.275 26.964 14.2265 30.0607 13.158 33.856C14.654 32.6193 16.0723 30.9785 18.0273 30.4478ZM74.2875 14.6116C72.9081 14.2708 73.0417 15.1399 72.4807 15.6049C71.6015 16.3328 68.731 14.8989 67.5288 14.6749C61.5132 13.5502 54.4194 15.2787 50.8008 20.4738C46.5484 26.5794 44.6978 41.9749 49.5647 47.9856C55.6045 55.4423 64.4615 54.5172 71.3441 48.8133C72.8765 47.5425 72.2281 47.0142 71.7837 45.2492C71.6452 44.7039 71.1134 42.5494 70.754 42.3815C68.1141 46.9412 60.6025 51.8101 57.681 44.738C55.8353 40.2708 56.4643 32.9163 57.273 28.1667C57.8753 24.6343 59.9492 17.4891 64.1774 17.0485C70.6423 16.3742 70.363 24.0184 71.145 28.4734L73.3137 28.4978L74.2875 14.6116ZM99.2508 14.614H77.6973L77.4714 16.788C79.1325 17.1386 80.0748 17.791 80.087 19.6096C80.087 19.9309 79.8975 20.2571 79.8902 20.5809C79.781 26.2532 78.9601 32.203 78.4258 37.8753C78.1465 40.8405 78.1927 43.886 77.6268 46.817C77.2285 48.8717 76.7987 49.6386 74.5523 49.9526L74.5304 51.6373H87.9264L88.1717 49.9331C86.6635 49.8236 85.3327 49.3002 85.2598 47.6009C85.2428 47.1871 85.4881 46.7951 85.493 46.4007C85.5197 43.8787 85.7771 41.8045 85.9787 39.3384C86.1705 37.0305 86.2847 34.7032 86.4644 32.3953C91.1904 31.6309 90.9815 34.9515 91.6032 38.462L93.0434 38.4863L94.2747 24.7292L93.8618 24.1498H92.8345C91.579 27.4266 91.2147 30.7691 86.7097 29.9609L87.8025 17.5232L88.0867 17.0412C89.5317 17.0534 91.171 17.0071 92.5698 17.4039C95.0008 18.0929 96.7567 23.232 97.206 25.5545L98.736 25.5448L99.1343 24.9702C99.229 22.4506 99.2921 19.9382 99.3771 17.4185C99.4062 16.5446 100.091 15.3444 99.2557 14.6165L99.2508 14.614ZM114.959 51.6373L115.1 49.921C114.33 49.5144 113.259 49.6556 113.016 48.5869L108.516 25.8077C108.358 25.5545 108.05 25.5861 107.785 25.5642C106.456 25.4571 103.685 25.4109 102.403 25.5618C102.243 25.5813 102.08 25.518 102.022 25.72C101.587 27.1588 101.033 28.5684 100.458 29.9536C98.5295 34.5961 96.6012 39.667 94.4641 44.1757C93.449 46.3131 91.9894 49.6386 89.4054 49.9551L89.3835 51.6397H97.665L97.6552 49.9429C93.4514 49.8431 96.4993 45.6022 96.934 43.3577H104.727C105.087 45.6923 106.898 49.5582 103.292 49.9575L103.268 51.6397H114.959V51.6373ZM130.303 25.574H118.611L118.366 27.2781C120.734 27.429 120.404 29.4496 120.316 31.2974C120.112 35.6137 119.605 40.8624 119.1 45.1811C118.862 47.2041 118.864 49.4146 116.53 49.9185L116.178 51.6348H128.112C128.442 49.5826 127.772 50.123 126.876 49.3391C126.628 49.1225 126.47 48.9228 126.412 48.5845C126.094 46.7294 126.747 43.7302 126.895 41.7704C127.175 38.0433 127.179 32.9455 127.925 29.4034C128.219 28.006 128.858 27.4485 130.278 27.2537L130.303 25.5715V25.574ZM129.329 51.6373H141.263L141.238 49.7116C140.352 49.6434 139.623 49.215 139.378 48.3191L139.798 40.4315C141.396 40.2805 141.916 40.4095 142.771 41.7242C144.318 44.1002 145.515 48.324 146.819 51.0725C148.774 55.1891 151.844 61.1779 156.961 61.6331C162.066 62.0908 167.161 59.4007 167.059 53.7333C166.945 47.4768 156.903 50.3397 160.259 55.7758C156.521 57.1124 153.879 52.4333 152.339 49.6946C151.052 47.4086 149.085 41.9335 147.475 40.4339C146.797 39.8034 145.884 39.611 145.163 39.0925C147.055 38.7103 148.85 38.0189 150.032 36.4146C151.436 34.5109 151.698 31.0004 151.084 28.7875C150.438 26.4577 148.488 25.72 146.268 25.5667C141.491 25.238 136.34 25.832 131.524 25.5788L131.276 27.2805C133.921 27.4582 133.144 29.8659 133.227 31.7891C132.442 37.4517 132.391 43.2652 131.293 48.8547L129.44 49.9234L129.331 51.6397L129.329 51.6373Z" fill="white"></path><path d="M37.9999 43.8422C38.1796 43.0559 38.8329 42.4351 39.0927 41.6512C39.3963 40.7431 39.491 39.9787 39.2457 39.0609C39.1559 38.725 39.4084 38.3793 38.8523 38.4864L34.3692 43.2799L34.4566 43.8422C35.972 44.8501 35.3746 47.136 34.221 48.2267L33.592 45.0813C31.6079 45.5269 30.7627 45.6924 28.8466 44.8355C28.56 44.7064 28.3997 44.9621 28.4993 44.3291C30.2697 44.2707 32.6036 43.2701 33.9733 42.1308C34.9253 41.3372 35.3867 40.3171 36.1663 39.4529C37.0406 38.4815 38.1116 37.8437 38.964 36.8943C40.0253 35.7111 40.5256 34.1385 41.6476 33.1257C42.0677 35.346 41.6597 37.4688 40.9239 39.5843C40.3264 41.2982 39.5469 42.8027 37.9999 43.8422Z" fill="white"></path><path d="M37.9974 41.4077C38.3399 41.7631 36.8147 44.5603 35.9307 44.329C35.462 43.9833 35.6539 44.0174 35.7413 43.662C35.9671 42.7393 36.9264 41.3785 37.9974 41.4077Z" fill="white"></path><path d="M140.044 37.9947L141.015 27.5216C143.329 27.3415 145.144 27.5216 145.586 30.1363C146.268 34.1555 144.847 38.6106 140.041 37.9947H140.044Z" fill="white"></path><path d="M104.242 41.1618L97.9103 41.4052L102.175 30.6912L104.242 41.1618Z" fill="white"></path></g><defs><clipPath id="clip0_2037_505"><rect width="170" height="65" fill="white"></rect></clipPath></defs></svg>